<?xml version="1.0" encoding="UTF-8" standalone="no"?>
<svg viewBox="0 0 1861 565"
     preserveAspectRatio="xMidYMid meet"
     version="1.1"
     baseProfile="full"
     xmlns="http://www.w3.org/2000/svg"
     xmlns:xlink="http://www.w3.org/1999/xlink"
     xmlns:ev="http://www.w3.org/2001/xml-events"
     xml:space="preserve">
<title>bd_fir_dma_imp</title>
<desc>Nlview schematic (SVG)</desc>
<clipPath id="clippingbbox">
<rect x="0" y="0" width="1861" height="565" />
</clipPath>
<g stroke="#102235"
   stroke-width="1"
   stroke-linecap="butt"
   stroke-linejoin="miter"
   stroke-miterlimit="4"
   stroke-dasharray="none"
   stroke-dashoffset="0"
   fill="none"
   font-family="Helvetica"
   font-style="normal"
   font-size="12"
   writing-mode="lr-tb"
   cursor="crosshair"
   clip-path="url(#clippingbbox)">
<path d="M0 0h1860v565h-1860z" stroke="none" fill="white" />
<path d="M1750 486v-7h14l7 7l-7 7h-14z" stroke="none" fill="#ddd4d0" />
<g stroke="#2a5e6f" stroke-width="3">
<path d="M1750 486v-7h14l7 7l-7 7h-14z" />
<text x="1775" y="486" fill="black" stroke-width="0" dy="4.4">DDR</text>
<path d="M1750 456v-7h14l7 7l-7 7h-14z" stroke="none" fill="#ddd4d0" />
<path d="M1750 456v-7h14l7 7l-7 7h-14z" />
<text x="1775" y="456" fill="black" stroke-width="0" dy="4.4">FIXED_IO</text>
<path d="M77 108h266l3 1l2 1l1 2l1 3v162l-1 3l-1 2l-2 1l-3 1h-266l-3 -1l-2 -1l-1 -2l-1 -3v-162l1 -3l1 -2l2 -1z" stroke="none" fill="#edf6fe" />
<text x="210" y="106" fill="black" stroke-width="0" text-anchor="middle" dy="-1.6">axi_dma_0</text>
<text x="210" y="286" fill="#41619f" stroke-width="0" text-anchor="middle" dy="9.6">AXI Direct Memory Access</text>
<path d="M60 137h10v18h-10z" stroke="none" fill="#edf6fe" />
</g>
<g stroke="black" stroke-width="3">
<path d="M79 141v10" />
<path d="M74 146h10" />
</g>
<g stroke="black">
<path d="M72 139h14v14h-14z" />
<text x="87" y="146" fill="black" stroke-width="0" font-size="10" dy="3.66667">S_AXI_LITE</text>
<path d="M350 127h10v18h-10z" stroke="none" fill="#fbe4d3" />
</g>
<g stroke="#fd862b" stroke-width="3">
<path d="M340 131v10" />
<path d="M335 136h10" />
</g>
<g stroke="#fd862b">
<path d="M333 129h14v14h-14z" />
<text x="333" y="136" fill="#fd862b" stroke-width="0" font-size="10" text-anchor="end" dy="3.66667">M_AXI_MM2S</text>
<path d="M350 127h10v18h-10z" stroke="none" fill="#fbe4d3" fill-opacity="0.835294" />
<path d="M350 147h10v18h-10z" stroke="none" fill="#edf6fe" />
</g>
<g stroke="black" stroke-width="3">
<path d="M340 151v10" />
<path d="M335 156h10" />
</g>
<g stroke="black">
<path d="M333 149h14v14h-14z" />
<text x="333" y="156" fill="black" stroke-width="0" font-size="10" text-anchor="end" dy="3.66667">M_AXI_S2MM</text>
<path d="M350 167h10v18h-10z" stroke="none" fill="#edf6fe" />
</g>
<g stroke="black" stroke-width="3">
<path d="M340 171v10" />
<path d="M335 176h10" />
</g>
<g stroke="black">
<path d="M333 169h14v14h-14z" />
<text x="333" y="176" fill="black" stroke-width="0" font-size="10" text-anchor="end" dy="3.66667">M_AXIS_MM2S</text>
<path d="M60 157h10v18h-10z" stroke="none" fill="#edf6fe" />
</g>
<g stroke="black" stroke-width="3">
<path d="M79 161v10" />
<path d="M74 166h10" />
</g>
<g stroke="black">
<path d="M72 159h14v14h-14z" />
<text x="87" y="166" fill="black" stroke-width="0" font-size="10" dy="3.66667">S_AXIS_S2MM</text>
</g>
<g stroke="black" stroke-width="3">
<path d="M60 186h10" />
<text x="72" y="186" fill="black" stroke-width="0" font-size="10" dy="3.66667">s_axi_lite_aclk</text>
<path d="M60 206h10" />
<text x="72" y="206" fill="black" stroke-width="0" font-size="10" dy="3.66667">m_axi_mm2s_aclk</text>
<path d="M60 226h10" />
<text x="72" y="226" fill="black" stroke-width="0" font-size="10" dy="3.66667">m_axi_s2mm_aclk</text>
<circle cx="67" cy="246" r="3" />
<path d="M60 246h4" />
<text x="72" y="246" fill="black" stroke-width="0" font-size="10" dy="3.66667">axi_resetn</text>
<circle cx="353" cy="196" r="3" />
<path d="M360 196h-4" />
<text x="348" y="196" fill="black" stroke-width="0" font-size="10" text-anchor="end" dy="3.66667">mm2s_prmry_reset_out_n</text>
<circle cx="353" cy="216" r="3" />
<path d="M360 216h-4" />
<text x="348" y="216" fill="black" stroke-width="0" font-size="10" text-anchor="end" dy="3.66667">s2mm_prmry_reset_out_n</text>
<path d="M360 236h-10" />
<text x="348" y="236" fill="black" stroke-width="0" font-size="10" text-anchor="end" dy="3.66667">mm2s_introut</text>
<path d="M360 256h-10" />
<text x="348" y="256" fill="black" stroke-width="0" font-size="10" text-anchor="end" dy="3.66667">s2mm_introut</text>
</g>
<g stroke="#41619f">
<path d="M77 108h266" />
<path d="M343,108 A6.83537,6.83537 1.61957 0,1 350,115" />
<path d="M350 115v162" />
<path d="M350,277 A6.83537,6.83537 1.61957 0,1 343,284" />
<path d="M343 284h-266" />
<path d="M77,284 A6.83537,6.83537 1.61957 0,1 70,277" />
<path d="M70 277v-162" />
<path d="M70,115 A6.83537,6.83537 1.61957 0,1 77,108" />
<path d="M1457 28h226l3 1l2 1l1 2l1 3v222l-1 3l-1 2l-2 1l-3 1h-226l-3 -1l-2 -1l-1 -2l-1 -3v-222l1 -3l1 -2l2 -1z" stroke="none" fill="#edf6fe" />
<text x="1570" y="26" fill="black" stroke-width="0" text-anchor="middle" dy="-1.6">axi_mem_intercon</text>
<text x="1570" y="266" fill="#41619f" stroke-width="0" text-anchor="middle" dy="9.6">AXI Interconnect (Discontinued)</text>
</g>
<g stroke="#41619f" stroke-width="3">
<path d="M1461 33v12" />
<path d="M1455 39h12" />
</g>
<g stroke="#41619f">
<path d="M1453 31h16v16h-16z" />
<path d="M1440 47h10v18h-10z" stroke="none" fill="#edf6fe" />
</g>
<g stroke="black" stroke-width="3">
<path d="M1459 51v10" />
<path d="M1454 56h10" />
</g>
<g stroke="black">
<path d="M1452 49h14v14h-14z" />
<text x="1467" y="56" fill="black" stroke-width="0" font-size="10" dy="3.66667">S00_AXI</text>
<path d="M1690 137h10v18h-10z" stroke="none" fill="#edf6fe" />
</g>
<g stroke="black" stroke-width="3">
<path d="M1680 141v10" />
<path d="M1675 146h10" />
</g>
<g stroke="black">
<path d="M1673 139h14v14h-14z" />
<text x="1673" y="146" fill="black" stroke-width="0" font-size="10" text-anchor="end" dy="3.66667">M00_AXI</text>
<path d="M1440 67h10v18h-10z" stroke="none" fill="#edf6fe" />
</g>
<g stroke="black" stroke-width="3">
<path d="M1459 71v10" />
<path d="M1454 76h10" />
</g>
<g stroke="black">
<path d="M1452 69h14v14h-14z" />
<text x="1467" y="76" fill="black" stroke-width="0" font-size="10" dy="3.66667">S01_AXI</text>
</g>
<g stroke="black" stroke-width="3">
<path d="M1440 96h10" />
<text x="1452" y="96" fill="black" stroke-width="0" font-size="10" dy="3.66667">ACLK</text>
<path d="M1440 116h10" />
<text x="1452" y="116" fill="black" stroke-width="0" font-size="10" dy="3.66667">ARESETN</text>
<path d="M1440 136h10" />
<text x="1452" y="136" fill="black" stroke-width="0" font-size="10" dy="3.66667">S00_ACLK</text>
<path d="M1440 156h10" />
<text x="1452" y="156" fill="black" stroke-width="0" font-size="10" dy="3.66667">S00_ARESETN</text>
<path d="M1440 176h10" />
<text x="1452" y="176" fill="black" stroke-width="0" font-size="10" dy="3.66667">M00_ACLK</text>
<path d="M1440 196h10" />
<text x="1452" y="196" fill="black" stroke-width="0" font-size="10" dy="3.66667">M00_ARESETN</text>
<path d="M1440 216h10" />
<text x="1452" y="216" fill="black" stroke-width="0" font-size="10" dy="3.66667">S01_ACLK</text>
<path d="M1440 236h10" />
<text x="1452" y="236" fill="black" stroke-width="0" font-size="10" dy="3.66667">S01_ARESETN</text>
</g>
<g stroke="#41619f">
<path d="M1457 28h226" />
<path d="M1683,28 A6.83537,6.83537 1.61957 0,1 1690,35" />
<path d="M1690 35v222" />
<path d="M1690,257 A6.83537,6.83537 1.61957 0,1 1683,264" />
<path d="M1683 264h-226" />
<path d="M1457,264 A6.83537,6.83537 1.61957 0,1 1450,257" />
<path d="M1450 257v-222" />
<path d="M1450,35 A6.83537,6.83537 1.61957 0,1 1457,28" />
<path d="M1467 308h206l3 1l2 1l1 2l1 3v82l-1 3l-1 2l-2 1l-3 1h-206l-3 -1l-2 -1l-1 -2l-1 -3v-82l1 -3l1 -2l2 -1z" stroke="none" fill="#edf6fe" />
<text x="1570" y="306" fill="black" stroke-width="0" text-anchor="middle" dy="-1.6">axi_smc</text>
<text x="1570" y="406" fill="#41619f" stroke-width="0" text-anchor="middle" dy="9.6">AXI SmartConnect</text>
<path d="M1450 327h10v18h-10z" stroke="none" fill="#edf6fe" />
</g>
<g stroke="black" stroke-width="3">
<path d="M1469 331v10" />
<path d="M1464 336h10" />
</g>
<g stroke="black">
<path d="M1462 329h14v14h-14z" />
<text x="1477" y="336" fill="black" stroke-width="0" font-size="10" dy="3.66667">S00_AXI</text>
<path d="M1680 347h10v18h-10z" stroke="none" fill="#edf6fe" />
</g>
<g stroke="black" stroke-width="3">
<path d="M1670 351v10" />
<path d="M1665 356h10" />
</g>
<g stroke="black">
<path d="M1663 349h14v14h-14z" />
<text x="1663" y="356" fill="black" stroke-width="0" font-size="10" text-anchor="end" dy="3.66667">M00_AXI</text>
</g>
<g stroke="black" stroke-width="3">
<path d="M1450 356h10" />
<text x="1462" y="356" fill="black" stroke-width="0" font-size="10" dy="3.66667">aclk</text>
<circle cx="1457" cy="376" r="3" />
<path d="M1450 376h4" />
<text x="1462" y="376" fill="black" stroke-width="0" font-size="10" dy="3.66667">aresetn</text>
</g>
<g stroke="#41619f">
<path d="M1467 308h206" />
<path d="M1673,308 A6.83537,6.83537 1.61957 0,1 1680,315" />
<path d="M1680 315v82" />
<path d="M1680,397 A6.83537,6.83537 1.61957 0,1 1673,404" />
<path d="M1673 404h-206" />
<path d="M1467,404 A6.83537,6.83537 1.61957 0,1 1460,397" />
<path d="M1460 397v-82" />
<path d="M1460,315 A6.83537,6.83537 1.61957 0,1 1467,308" />
<path d="M127 438h166l3 1l2 1l1 2l1 3v82l-1 3l-1 2l-2 1l-3 1h-166l-3 -1l-2 -1l-1 -2l-1 -3v-82l1 -3l1 -2l2 -1z" stroke="none" fill="#edf6fe" />
<text x="210" y="436" fill="black" stroke-width="0" text-anchor="middle" dy="-1.6">fir_decimator_n43_ax_0</text>
<text x="210" y="536" fill="#41619f" stroke-width="0" text-anchor="middle" dy="9.6">fir_decimator_n43_axis_v1_0</text>
<path d="M300 477h10v18h-10z" stroke="none" fill="#edf6fe" />
</g>
<g stroke="black" stroke-width="3">
<path d="M290 481v10" />
<path d="M285 486h10" />
</g>
<g stroke="black">
<path d="M283 479h14v14h-14z" />
<text x="283" y="486" fill="black" stroke-width="0" font-size="10" text-anchor="end" dy="3.66667">m_axis</text>
<path d="M110 457h10v18h-10z" stroke="none" fill="#edf6fe" />
</g>
<g stroke="black" stroke-width="3">
<path d="M129 461v10" />
<path d="M124 466h10" />
</g>
<g stroke="black">
<path d="M122 459h14v14h-14z" />
<text x="137" y="466" fill="black" stroke-width="0" font-size="10" dy="3.66667">s_axis</text>
</g>
<g stroke="black" stroke-width="3">
<path d="M110 486h10" />
<text x="122" y="486" fill="black" stroke-width="0" font-size="10" dy="3.66667">aclk</text>
<circle cx="117" cy="506" r="3" />
<path d="M110 506h4" />
<text x="122" y="506" fill="black" stroke-width="0" font-size="10" dy="3.66667">aresetn</text>
</g>
<g stroke="#41619f">
<path d="M127 438h166" />
<path d="M293,438 A6.83537,6.83537 1.61957 0,1 300,445" />
<path d="M300 445v82" />
<path d="M300,527 A6.83537,6.83537 1.61957 0,1 293,534" />
<path d="M293 534h-166" />
<path d="M127,534 A6.83537,6.83537 1.61957 0,1 120,527" />
<path d="M120 527v-82" />
<path d="M120,445 A6.83537,6.83537 1.61957 0,1 127,438" />
<path d="M547 348h346l3 1l2 1l1 2l1 3v142l-1 3l-1 2l-2 1l-3 1h-346l-3 -1l-2 -1l-1 -2l-1 -3v-142l1 -3l1 -2l2 -1z" stroke="none" fill="#edf6fe" />
<text x="720" y="346" fill="black" stroke-width="0" text-anchor="middle" dy="-1.6">processing_system7_0</text>
<text x="720" y="506" fill="#41619f" stroke-width="0" text-anchor="middle" dy="9.6">ZYNQ7 Processing System</text>
<path d="M900 367h10v18h-10z" stroke="none" fill="#edf6fe" />
</g>
<g stroke="black" stroke-width="3">
<path d="M890 371v10" />
<path d="M885 376h10" />
</g>
<g stroke="black">
<path d="M883 369h14v14h-14z" />
<text x="883" y="376" fill="black" stroke-width="0" font-size="10" text-anchor="end" dy="3.66667">DDR</text>
<path d="M900 387h10v18h-10z" stroke="none" fill="#edf6fe" />
</g>
<g stroke="black" stroke-width="3">
<path d="M890 391v10" />
<path d="M885 396h10" />
</g>
<g stroke="black">
<path d="M883 389h14v14h-14z" />
<text x="883" y="396" fill="black" stroke-width="0" font-size="10" text-anchor="end" dy="3.66667">FIXED_IO</text>
<path d="M900 407h10v18h-10z" stroke="none" fill="#edf6fe" />
</g>
<g stroke="black" stroke-width="3">
<path d="M890 411v10" />
<path d="M885 416h10" />
</g>
<g stroke="black">
<path d="M883 409h14v14h-14z" />
<text x="883" y="416" fill="black" stroke-width="0" font-size="10" text-anchor="end" dy="3.66667">USBIND_0</text>
<path d="M530 387h10v18h-10z" stroke="none" fill="#edf6fe" />
</g>
<g stroke="black" stroke-width="3">
<path d="M549 391v10" />
<path d="M544 396h10" />
</g>
<g stroke="black">
<path d="M542 389h14v14h-14z" />
<text x="557" y="396" fill="black" stroke-width="0" font-size="10" dy="3.66667">S_AXI_HP0_FIFO_CTRL</text>
<path d="M900 427h10v18h-10z" stroke="none" fill="#edf6fe" />
</g>
<g stroke="black" stroke-width="3">
<path d="M890 431v10" />
<path d="M885 436h10" />
</g>
<g stroke="black">
<path d="M883 429h14v14h-14z" />
<text x="883" y="436" fill="black" stroke-width="0" font-size="10" text-anchor="end" dy="3.66667">M_AXI_GP0</text>
<path d="M530 407h10v18h-10z" stroke="none" fill="#edf6fe" />
</g>
<g stroke="black" stroke-width="3">
<path d="M549 411v10" />
<path d="M544 416h10" />
</g>
<g stroke="black">
<path d="M542 409h14v14h-14z" />
<text x="557" y="416" fill="black" stroke-width="0" font-size="10" dy="3.66667">S_AXI_HP0</text>
</g>
<g stroke="black" stroke-width="3">
<path d="M530 436h10" />
<text x="542" y="436" fill="black" stroke-width="0" font-size="10" dy="3.66667">M_AXI_GP0_ACLK</text>
<path d="M530 456h10" />
<text x="542" y="456" fill="black" stroke-width="0" font-size="10" dy="3.66667">S_AXI_HP0_ACLK</text>
<path d="M910 456h-10" />
<text x="898" y="456" fill="black" stroke-width="0" font-size="10" text-anchor="end" dy="3.66667">FCLK_CLK0</text>
<circle cx="903" cy="476" r="3" />
<path d="M910 476h-4" />
<text x="898" y="476" fill="black" stroke-width="0" font-size="10" text-anchor="end" dy="3.66667">FCLK_RESET0_N</text>
</g>
<g stroke="#41619f">
<path d="M547 348h346" />
<path d="M893,348 A6.83537,6.83537 1.61957 0,1 900,355" />
<path d="M900 355v142" />
<path d="M900,497 A6.83537,6.83537 1.61957 0,1 893,504" />
<path d="M893 504h-346" />
<path d="M547,504 A6.83537,6.83537 1.61957 0,1 540,497" />
<path d="M540 497v-142" />
<path d="M540,355 A6.83537,6.83537 1.61957 0,1 547,348" />
<path d="M1037 148h286l3 1l2 1l1 2l1 3v122l-1 3l-1 2l-2 1l-3 1h-286l-3 -1l-2 -1l-1 -2l-1 -3v-122l1 -3l1 -2l2 -1z" stroke="none" fill="#edf6fe" />
<text x="1180" y="146" fill="black" stroke-width="0" text-anchor="middle" dy="-1.6">rst_ps7_0_100M</text>
<text x="1180" y="286" fill="#41619f" stroke-width="0" text-anchor="middle" dy="9.6">Processor System Reset</text>
</g>
<g stroke="black" stroke-width="3">
<path d="M1020 176h10" />
<text x="1032" y="176" fill="black" stroke-width="0" font-size="10" dy="3.66667">slowest_sync_clk</text>
<circle cx="1027" cy="196" r="3" />
<path d="M1020 196h4" />
<text x="1032" y="196" fill="black" stroke-width="0" font-size="10" dy="3.66667">ext_reset_in</text>
<circle cx="1027" cy="216" r="3" />
<path d="M1020 216h4" />
<text x="1032" y="216" fill="black" stroke-width="0" font-size="10" dy="3.66667">aux_reset_in</text>
<path d="M1020 236h10" />
<text x="1032" y="236" fill="black" stroke-width="0" font-size="10" dy="3.66667">mb_debug_sys_rst</text>
<path d="M1020 256h10" />
<text x="1032" y="256" fill="black" stroke-width="0" font-size="10" dy="3.66667">dcm_locked</text>
<path d="M1340 176h-10" />
<text x="1328" y="176" fill="black" stroke-width="0" font-size="10" text-anchor="end" dy="3.66667">mb_reset</text>
</g>
<g stroke="black" stroke-width="5">
<path d="M1340 196h-10" />
<text x="1328" y="196" fill="black" stroke-width="0" font-size="10" text-anchor="end" dy="3.66667">bus_struct_reset[0:0]</text>
<path d="M1340 216h-10" />
<text x="1328" y="216" fill="black" stroke-width="0" font-size="10" text-anchor="end" dy="3.66667">peripheral_reset[0:0]</text>
<circle cx="1333" cy="236" r="3" />
<path d="M1340 236h-4" />
<text x="1328" y="236" fill="black" stroke-width="0" font-size="10" text-anchor="end" dy="3.66667">interconnect_aresetn[0:0]</text>
<circle cx="1333" cy="256" r="3" />
<path d="M1340 256h-4" />
<text x="1328" y="256" fill="black" stroke-width="0" font-size="10" text-anchor="end" dy="3.66667">peripheral_aresetn[0:0]</text>
</g>
<g stroke="#41619f">
<path d="M1037 148h286" />
<path d="M1323,148 A6.83537,6.83537 1.61957 0,1 1330,155" />
<path d="M1330 155v122" />
<path d="M1330,277 A6.83537,6.83537 1.61957 0,1 1323,284" />
<path d="M1323 284h-286" />
<path d="M1037,284 A6.83537,6.83537 1.61957 0,1 1030,277" />
<path d="M1030 277v-122" />
<path d="M1030,155 A6.83537,6.83537 1.61957 0,1 1037,148" />
</g>
<g stroke="#41619f" stroke-width="4">
<path d="M110 466h-100v-400h370v110h-20" />
<path d="M360 136h50v-80h1030" />
<path d="M360 156h60v-80h1020" />
<path d="M530 416h-20v-110h430v60h450v70h340v-290h-30" />
<path d="M60 146h-30v170h900v40h470v90h320v-90h-30" />
<path d="M60 166h-20v-90h350v410h-80" />
<path d="M910 376h470v110h370" />
</g>
<g>
<path d="M60 186h-20v300h70" />
<path d="M40 206h20" />
<path d="M40 226h20" />
<path d="M40 406h450" />
<path d="M488 434h5v5h-5z" stroke="none" fill="#102235" />
<path d="M488 404h5v5h-5z" stroke="none" fill="#102235" />
<path d="M910 456h40v-340h460" />
<path d="M1410 136h30" />
<path d="M1410 176h30" />
<path d="M1410 216h30" />
<path d="M1408 114h5v5h-5z" stroke="none" fill="#102235" />
<path d="M1408 134h5v5h-5z" stroke="none" fill="#102235" />
<path d="M1408 174h5v5h-5z" stroke="none" fill="#102235" />
<path d="M1408 214h5v5h-5z" stroke="none" fill="#102235" />
<path d="M38 204h5v5h-5z" stroke="none" fill="#102235" />
<path d="M38 224h5v5h-5z" stroke="none" fill="#102235" />
<path d="M38 404h5v5h-5z" stroke="none" fill="#102235" />
<path d="M530 456h-40v-170h460" />
<path d="M950 176h70" />
<path d="M948 284h5v5h-5z" stroke="none" fill="#102235" />
<path d="M948 174h5v5h-5z" stroke="none" fill="#102235" />
<path d="M1440 96h-30v260h40" />
<path d="M490 436h40" />
<path d="M910 476h50v-280h60" />
</g>
<g stroke="#41619f" stroke-width="4">
<path d="M910 396h450v60h390" />
<path d="M910 436h460v-100h80" />
</g>
<g stroke-width="3">
<path d="M60 246h-40v260h90" />
<path d="M20 326h480v-30h470v20h450v-200h20" />
<path d="M1340 256h80" />
<path d="M1420 236h20" />
<path d="M1420 196h20" />
<path d="M1420 156h20" />
<path d="M1417 253h7v7h-7z" stroke="none" fill="#102235" />
<path d="M1417 233h7v7h-7z" stroke="none" fill="#102235" />
<path d="M1417 193h7v7h-7z" stroke="none" fill="#102235" />
<path d="M1417 153h7v7h-7z" stroke="none" fill="#102235" />
<path d="M17 323h7v7h-7z" stroke="none" fill="#102235" />
</g>
</g>
</svg>
